<mxfile host="app.diagrams.net" modified="2020-12-12T15:57:39.969Z" agent="5.0 (X11; Linux x86_64) AppleWebKit/537.36 (KHTML, like Gecko) Chrome/85.0.4183.102 Safari/537.36" etag="_pljE7sCDLPgCE1ftr50" version="14.0.1" type="github">
  <diagram id="-kPS7vbOEdOf-NPWGsVT" name="Page-1">
    <mxGraphModel dx="1865" dy="1765" grid="1" gridSize="10" guides="1" tooltips="1" connect="1" arrows="1" fold="1" page="1" pageScale="1" pageWidth="827" pageHeight="1169" math="0" shadow="0">
      <root>
        <mxCell id="0" />
        <mxCell id="1" parent="0" />
        <mxCell id="CLJY1bVq05rDFRHtnUib-1" value="&lt;font style=&quot;font-size: 13px&quot;&gt;&lt;i&gt;Handle&lt;/i&gt;&lt;/font&gt;" style="html=1;" parent="1" vertex="1">
          <mxGeometry x="590" y="-80" width="110" height="50" as="geometry" />
        </mxCell>
        <mxCell id="CLJY1bVq05rDFRHtnUib-2" value="&lt;div style=&quot;font-size: 11px&quot; align=&quot;center&quot;&gt;&lt;font style=&quot;font-size: 11px&quot;&gt;Permite implementar subclases con comportamiento handle.&lt;/font&gt;&lt;/div&gt;&lt;div style=&quot;font-size: 11px&quot; align=&quot;center&quot;&gt;&lt;font style=&quot;font-size: 11px&quot;&gt;&lt;br&gt;&lt;/font&gt;&lt;/div&gt;" style="shape=note2;boundedLbl=1;whiteSpace=wrap;html=1;size=20;verticalAlign=top;align=center;" parent="1" vertex="1">
          <mxGeometry x="700" y="-160" width="120" height="70" as="geometry" />
        </mxCell>
        <mxCell id="CLJY1bVq05rDFRHtnUib-3" style="edgeStyle=orthogonalEdgeStyle;rounded=0;orthogonalLoop=1;jettySize=auto;html=1;exitX=0.5;exitY=0;exitDx=0;exitDy=0;entryX=0;entryY=0.5;entryDx=0;entryDy=0;" parent="1" source="CLJY1bVq05rDFRHtnUib-4" target="CLJY1bVq05rDFRHtnUib-1" edge="1">
          <mxGeometry relative="1" as="geometry" />
        </mxCell>
        <mxCell id="CLJY1bVq05rDFRHtnUib-4" value="Elliptic" style="swimlane;fontStyle=1;align=center;verticalAlign=top;childLayout=stackLayout;horizontal=1;startSize=26;horizontalStack=0;resizeParent=1;resizeParentMax=0;resizeLast=0;collapsible=1;marginBottom=0;" parent="1" vertex="1">
          <mxGeometry x="101" y="151" width="439" height="540" as="geometry" />
        </mxCell>
        <mxCell id="CLJY1bVq05rDFRHtnUib-5" value="# mesh: mesh[]&#xa;# fe: finiteelement[]&#xa;# qr: quadraturerule[]&#xa;" style="text;strokeColor=none;fillColor=none;align=left;verticalAlign=top;spacingLeft=4;spacingRight=4;overflow=hidden;rotatable=0;points=[[0,0.5],[1,0.5]];portConstraint=eastwest;" parent="CLJY1bVq05rDFRHtnUib-4" vertex="1">
          <mxGeometry y="26" width="439" height="54" as="geometry" />
        </mxCell>
        <mxCell id="CLJY1bVq05rDFRHtnUib-6" value="" style="line;strokeWidth=1;fillColor=none;align=left;verticalAlign=middle;spacingTop=-1;spacingLeft=3;spacingRight=3;rotatable=0;labelPosition=right;points=[];portConstraint=eastwest;" parent="CLJY1bVq05rDFRHtnUib-4" vertex="1">
          <mxGeometry y="80" width="439" height="8" as="geometry" />
        </mxCell>
        <mxCell id="CLJY1bVq05rDFRHtnUib-7" value="# stiffness(A: function handle, DinvT: matrixArray, detD: Array, &#xa;dphi: Array, w: Array, co: Array, el: Array): Array&#xa;&#xa;# damping(b: function handle, DinvT: Array, detD: Array, &#xa;phi: Array , dphi: Array, w: Array, l: Array, co: Array, el: Array): Array&#xa;&#xa;#mass(c: function handle, detD: Array, pipj: Array, el:Array,&#xa; co:Array): Array&#xa;&#xa;#volume_force(detD: Array, phi: Array,w: Array, l: Array, f: function handle,&#xa; co: Array, el: Array): Array&#xa;&#xa;#pressure(meas: cellArray, phi: Array, w: Array, l: Array,&#xa;g:function handle, faces: cell Array, co: Array): Array&#xa;&#xa;#dirichlet(d: function, nodes: Array, co: Array): Array&#xa;&#xa;&#xa;&#xa;&#xa;&#xa;" style="text;strokeColor=none;fillColor=none;align=left;verticalAlign=top;spacingLeft=4;spacingRight=4;overflow=hidden;rotatable=0;points=[[0,0.5],[1,0.5]];portConstraint=eastwest;fontStyle=4" parent="CLJY1bVq05rDFRHtnUib-4" vertex="1">
          <mxGeometry y="88" width="439" height="262" as="geometry" />
        </mxCell>
        <mxCell id="CLJY1bVq05rDFRHtnUib-8" value="&lt;div align=&quot;left&quot;&gt;+ elliptic()&amp;nbsp;&amp;nbsp; &amp;lt;&amp;lt;constructor&amp;gt;&amp;gt;&lt;/div&gt;&lt;div align=&quot;left&quot;&gt;&lt;br&gt;&lt;/div&gt;&lt;div align=&quot;left&quot;&gt; + assamble(opt.A: Array, opt.b: Array, opt.c: Array, opt.S: 0..1, opt.D: 0..1,&lt;/div&gt;&lt;div align=&quot;left&quot;&gt;opt.M: 0..1, opt.M: 0..1, opt.force: Array,&amp;nbsp; opt.dirichlet: cell Array, &lt;br&gt;&lt;/div&gt;&lt;div align=&quot;left&quot;&gt;opt.Neumann: cell Array, opt.Robin: cell Array):&amp;nbsp; 3 struct Arrays&lt;br&gt;&lt;/div&gt;&lt;div align=&quot;left&quot;&gt;&lt;br&gt;&lt;/div&gt;&lt;div align=&quot;left&quot;&gt;+ gradu (u: Array): Array (Ndof x Nd)&lt;/div&gt;&lt;div align=&quot;left&quot;&gt;&lt;br&gt;&lt;/div&gt;&lt;div&gt;+ gradq(u: Array, xq: Array): Array (Nxq x Nd)&lt;/div&gt;&lt;div&gt;&lt;br&gt;&lt;/div&gt;&lt;div&gt;+ plot(u: Array, varargin: string)&lt;/div&gt;&lt;div&gt;&lt;br&gt;&lt;/div&gt;&lt;div&gt;+ gradCell(u:&amp;nbsp; Array): Array&lt;br&gt;&lt;/div&gt;" style="text;html=1;align=left;verticalAlign=middle;resizable=0;points=[];autosize=1;" parent="CLJY1bVq05rDFRHtnUib-4" vertex="1">
          <mxGeometry y="350" width="439" height="190" as="geometry" />
        </mxCell>
        <mxCell id="CLJY1bVq05rDFRHtnUib-9" style="edgeStyle=orthogonalEdgeStyle;rounded=0;orthogonalLoop=1;jettySize=auto;html=1;exitX=0.5;exitY=0;exitDx=0;exitDy=0;entryX=0.5;entryY=1;entryDx=0;entryDy=0;" parent="1" source="CLJY1bVq05rDFRHtnUib-10" target="CLJY1bVq05rDFRHtnUib-1" edge="1">
          <mxGeometry relative="1" as="geometry" />
        </mxCell>
        <mxCell id="CLJY1bVq05rDFRHtnUib-10" value="Elastic" style="swimlane;fontStyle=1;align=center;verticalAlign=top;childLayout=stackLayout;horizontal=1;startSize=26;horizontalStack=0;resizeParent=1;resizeParentMax=0;resizeLast=0;collapsible=1;marginBottom=0;" parent="1" vertex="1">
          <mxGeometry x="620" y="151" width="440" height="640" as="geometry" />
        </mxCell>
        <mxCell id="CLJY1bVq05rDFRHtnUib-11" value="# mesh: mesh[]&#xa;# fe: finiteelement[]&#xa;# qr: quadraturerule[]&#xa;# lambda : float&#xa;# mu: float&#xa;&#xa;" style="text;strokeColor=none;fillColor=none;align=left;verticalAlign=top;spacingLeft=4;spacingRight=4;overflow=hidden;rotatable=0;points=[[0,0.5],[1,0.5]];portConstraint=eastwest;" parent="CLJY1bVq05rDFRHtnUib-10" vertex="1">
          <mxGeometry y="26" width="440" height="84" as="geometry" />
        </mxCell>
        <mxCell id="CLJY1bVq05rDFRHtnUib-12" value="" style="line;strokeWidth=1;fillColor=none;align=left;verticalAlign=middle;spacingTop=-1;spacingLeft=3;spacingRight=3;rotatable=0;labelPosition=right;points=[];portConstraint=eastwest;" parent="CLJY1bVq05rDFRHtnUib-10" vertex="1">
          <mxGeometry y="110" width="440" height="8" as="geometry" />
        </mxCell>
        <mxCell id="CLJY1bVq05rDFRHtnUib-13" value="# hysdrostatic_component(p: Array, DinvT: Array, detD: Array, &#xa;dphi: Array, w: Array, el: Array, co: Array): Array&#xa;&#xa;# stiffness(lambda: float, mu: float, DinvT: matrixArray,&#xa; detD: Array, dphi: Array, w: Array, co: Array, el: Array): Array&#xa;&#xa;# damping(b: function handle, DinvT: Array, detD: Array, &#xa;phi: Array , dphi: Array, w: Array, l: Array, co: Array, el: Array): Array&#xa;&#xa;#mass(c: function handle, detD: Array, pipj: Array, el:Array, co:Array): Array&#xa;&#xa;#load(detD: Array, phi: Array, w: Array, l: Array, f: function handle,&#xa;el: Array, co: Array ): Array&#xa;&#xa;#neumann(meas: cell Array, phi: Array, w: Array, l: Array, g: function handle,&#xa;faces: cell Array, normals: Array, co: Array): Array&#xa;&#xa;#dirichlet(d: function, nodes: Array, co: Array): Array&#xa;&#xa;&#xa;&#xa;&#xa;&#xa;" style="text;strokeColor=none;fillColor=none;align=left;verticalAlign=top;spacingLeft=4;spacingRight=4;overflow=hidden;rotatable=0;points=[[0,0.5],[1,0.5]];portConstraint=eastwest;fontStyle=4" parent="CLJY1bVq05rDFRHtnUib-10" vertex="1">
          <mxGeometry y="118" width="440" height="292" as="geometry" />
        </mxCell>
        <mxCell id="CLJY1bVq05rDFRHtnUib-14" value="&lt;div align=&quot;left&quot;&gt;+ elastic()&amp;nbsp;&amp;nbsp; &amp;lt;&amp;lt;constructor&amp;gt;&amp;gt;&lt;/div&gt;&lt;div align=&quot;left&quot;&gt;&lt;br&gt;&lt;/div&gt;&lt;div align=&quot;left&quot;&gt;+ setmaterial(lambda: float, mu: float)&lt;br&gt;&lt;/div&gt;&lt;div align=&quot;left&quot;&gt;&lt;br&gt;&lt;/div&gt;&lt;div align=&quot;left&quot;&gt; + assamble(opt.A: Array, opt.b: Array, opt.c: Array, opt.S: 0..1, opt.D: 0..1,&lt;/div&gt;&lt;div align=&quot;left&quot;&gt;opt.M: 0..1, opt.hydro: Array, opt.force: Array,&amp;nbsp; opt.dirichlet: cell Array, &lt;br&gt;&lt;/div&gt;&lt;div align=&quot;left&quot;&gt;opt.Neumann: cell Array):&amp;nbsp; 3 struct Arrays&lt;br&gt;&lt;/div&gt;&lt;div align=&quot;left&quot;&gt;&lt;br&gt;&lt;/div&gt;&lt;div align=&quot;left&quot;&gt;+ gradu (u: Array): Array (Ndof x Nd)&lt;/div&gt;&lt;div align=&quot;left&quot;&gt;&lt;br&gt;&lt;/div&gt;&lt;div&gt;+ graduAtx(u: Array, X: Array): Array (Ndofs x Nd)&lt;/div&gt;&lt;div&gt;&lt;br&gt;&lt;/div&gt;&lt;div&gt;+ defGrad(u: Array): Array&lt;/div&gt;&lt;div&gt;&lt;br&gt;&lt;/div&gt;&lt;div&gt;+StrainStress(u: Array): Array&lt;br&gt;&lt;/div&gt;&lt;div&gt;&lt;br&gt;&lt;/div&gt;" style="text;html=1;align=left;verticalAlign=middle;resizable=0;points=[];autosize=1;" parent="CLJY1bVq05rDFRHtnUib-10" vertex="1">
          <mxGeometry y="410" width="440" height="230" as="geometry" />
        </mxCell>
        <mxCell id="CLJY1bVq05rDFRHtnUib-15" style="edgeStyle=orthogonalEdgeStyle;rounded=0;orthogonalLoop=1;jettySize=auto;html=1;exitX=0.5;exitY=0;exitDx=0;exitDy=0;entryX=0.5;entryY=1.009;entryDx=0;entryDy=0;entryPerimeter=0;" parent="1" source="CLJY1bVq05rDFRHtnUib-16" target="CLJY1bVq05rDFRHtnUib-14" edge="1">
          <mxGeometry relative="1" as="geometry" />
        </mxCell>
        <mxCell id="CLJY1bVq05rDFRHtnUib-16" value="Viscoplastic" style="swimlane;fontStyle=1;align=center;verticalAlign=top;childLayout=stackLayout;horizontal=1;startSize=26;horizontalStack=0;resizeParent=1;resizeParentMax=0;resizeLast=0;collapsible=1;marginBottom=0;" parent="1" vertex="1">
          <mxGeometry x="620" y="860" width="440" height="410" as="geometry">
            <mxRectangle x="790" y="920" width="100" height="26" as="alternateBounds" />
          </mxGeometry>
        </mxCell>
        <mxCell id="CLJY1bVq05rDFRHtnUib-17" value="# nu: float&#xa;# sigY: float&#xa;# theta: float&#xa;# dt: float                       ///// no estoy seguro si son floats o arrays&#xa;&#xa;" style="text;strokeColor=none;fillColor=none;align=left;verticalAlign=top;spacingLeft=4;spacingRight=4;overflow=hidden;rotatable=0;points=[[0,0.5],[1,0.5]];portConstraint=eastwest;" parent="CLJY1bVq05rDFRHtnUib-16" vertex="1">
          <mxGeometry y="26" width="440" height="74" as="geometry" />
        </mxCell>
        <mxCell id="CLJY1bVq05rDFRHtnUib-18" value="" style="line;strokeWidth=1;fillColor=none;align=left;verticalAlign=middle;spacingTop=-1;spacingLeft=3;spacingRight=3;rotatable=0;labelPosition=right;points=[];portConstraint=eastwest;" parent="CLJY1bVq05rDFRHtnUib-16" vertex="1">
          <mxGeometry y="100" width="440" height="8" as="geometry" />
        </mxCell>
        <mxCell id="CLJY1bVq05rDFRHtnUib-19" value="# stiffness( DinvT: Array,detD: Array, dphi: Array,  co: Array, el: Array, &#xa;u1: function , u0: function, sig0: Array, sigY: float ,lambda: float, mu: float,&#xa;nu: float, theta: float dt: float ,w: Array): 2 Arrays&#xa;&#xa;# tension(DinvT: Array, dphi: Array, el: Array, co: Array, u1: function, &#xa;&#xa;u0: function, sig0: Array, sigY: float, lambda: float, mu: float, nu: float,&#xa;theta: float, dt: float, w:Array): Array &#xa;&#xa;&#xa;&#xa;&#xa;&#xa;&#xa;&#xa;&#xa;" style="text;strokeColor=none;fillColor=none;align=left;verticalAlign=top;spacingLeft=4;spacingRight=4;overflow=hidden;rotatable=0;points=[[0,0.5],[1,0.5]];portConstraint=eastwest;fontStyle=4" parent="CLJY1bVq05rDFRHtnUib-16" vertex="1">
          <mxGeometry y="108" width="440" height="142" as="geometry" />
        </mxCell>
        <mxCell id="CLJY1bVq05rDFRHtnUib-20" value="&lt;div align=&quot;left&quot;&gt;+ viscoplastic()&amp;nbsp;&amp;nbsp; &amp;lt;&amp;lt;constructor&amp;gt;&amp;gt;&lt;/div&gt;&lt;div align=&quot;left&quot;&gt;&lt;br&gt;&lt;/div&gt;&lt;div align=&quot;left&quot;&gt;+ setmaterial(lambda: float, mu: float, nu: float, sigY: float)&lt;/div&gt;&lt;div align=&quot;left&quot;&gt;&lt;br&gt;&lt;/div&gt;&lt;div align=&quot;left&quot;&gt;+ settime(theta: float, dt: float)&lt;br&gt;&lt;/div&gt;&lt;div align=&quot;left&quot;&gt;&lt;br&gt;&lt;/div&gt;&lt;div align=&quot;left&quot;&gt; + assamble(u1: function, u0: function, sig0: Array, opt.b: Array, opt.S: 0..1, &lt;br&gt;&lt;/div&gt;&lt;div align=&quot;left&quot;&gt;opt.M: 0..1, opt.N: 0..1,&amp;nbsp; opt.N: 0..1): 3 struct Arrays&lt;br&gt;&lt;/div&gt;&lt;div align=&quot;left&quot;&gt;&lt;br&gt;&lt;/div&gt;&lt;br&gt;&lt;div&gt;&lt;br&gt;&lt;/div&gt;" style="text;html=1;align=left;verticalAlign=middle;resizable=0;points=[];autosize=1;" parent="CLJY1bVq05rDFRHtnUib-16" vertex="1">
          <mxGeometry y="250" width="440" height="160" as="geometry" />
        </mxCell>
        <mxCell id="CLJY1bVq05rDFRHtnUib-21" value="" style="endArrow=none;dashed=1;html=1;dashPattern=1 3;strokeWidth=2;" parent="1" edge="1">
          <mxGeometry width="50" height="50" relative="1" as="geometry">
            <mxPoint x="650" y="-80" as="sourcePoint" />
            <mxPoint x="700" y="-130" as="targetPoint" />
          </mxGeometry>
        </mxCell>
        <mxCell id="CLJY1bVq05rDFRHtnUib-22" value="&lt;p style=&quot;margin: 0px ; margin-top: 4px ; text-align: center&quot;&gt;Mesh&lt;/p&gt;&lt;hr size=&quot;1&quot;&gt;&lt;div style=&quot;height: 2px&quot;&gt;&lt;/div&gt;" style="verticalAlign=top;align=left;overflow=fill;fontSize=12;fontFamily=Helvetica;html=1;" parent="1" vertex="1">
          <mxGeometry x="1730" y="230" width="160" height="70" as="geometry" />
        </mxCell>
        <mxCell id="CLJY1bVq05rDFRHtnUib-23" value="&lt;p style=&quot;margin: 0px ; margin-top: 4px ; text-align: center&quot;&gt;&lt;b&gt;Finite Elements&lt;/b&gt;&lt;br&gt;&lt;/p&gt;&lt;hr size=&quot;1&quot;&gt;&lt;div style=&quot;height: 2px&quot;&gt;&lt;/div&gt;" style="verticalAlign=top;align=left;overflow=fill;fontSize=12;fontFamily=Helvetica;html=1;" parent="1" vertex="1">
          <mxGeometry x="-370" y="247.5" width="170" height="72.5" as="geometry" />
        </mxCell>
        <mxCell id="CLJY1bVq05rDFRHtnUib-24" value="" style="endArrow=open;endFill=1;endSize=12;html=1;entryX=1;entryY=0.5;entryDx=0;entryDy=0;exitX=0.005;exitY=0.178;exitDx=0;exitDy=0;exitPerimeter=0;" parent="1" source="CLJY1bVq05rDFRHtnUib-7" target="CLJY1bVq05rDFRHtnUib-23" edge="1">
          <mxGeometry width="160" relative="1" as="geometry">
            <mxPoint x="60" y="370" as="sourcePoint" />
            <mxPoint x="220" y="370" as="targetPoint" />
          </mxGeometry>
        </mxCell>
        <mxCell id="CLJY1bVq05rDFRHtnUib-25" value="" style="endArrow=open;endFill=1;endSize=12;html=1;entryX=0.667;entryY=1.023;entryDx=0;entryDy=0;entryPerimeter=0;" parent="1" target="CLJY1bVq05rDFRHtnUib-23" edge="1">
          <mxGeometry width="160" relative="1" as="geometry">
            <mxPoint x="615" y="760" as="sourcePoint" />
            <mxPoint x="-90" y="600" as="targetPoint" />
            <Array as="points">
              <mxPoint x="-257" y="760" />
            </Array>
          </mxGeometry>
        </mxCell>
        <mxCell id="CLJY1bVq05rDFRHtnUib-26" value="1" style="text;html=1;strokeColor=none;fillColor=none;align=center;verticalAlign=middle;whiteSpace=wrap;rounded=0;" parent="1" vertex="1">
          <mxGeometry x="-240" y="330" width="40" height="20" as="geometry" />
        </mxCell>
        <mxCell id="CLJY1bVq05rDFRHtnUib-27" value="1" style="text;html=1;strokeColor=none;fillColor=none;align=center;verticalAlign=middle;whiteSpace=wrap;rounded=0;" parent="1" vertex="1">
          <mxGeometry x="-190" y="255" width="40" height="20" as="geometry" />
        </mxCell>
        <mxCell id="CLJY1bVq05rDFRHtnUib-28" value="" style="endArrow=none;html=1;exitX=0.25;exitY=0;exitDx=0;exitDy=0;" parent="1" source="CLJY1bVq05rDFRHtnUib-4" edge="1">
          <mxGeometry width="50" height="50" relative="1" as="geometry">
            <mxPoint x="310" y="190" as="sourcePoint" />
            <mxPoint x="211" y="-290" as="targetPoint" />
          </mxGeometry>
        </mxCell>
        <mxCell id="CLJY1bVq05rDFRHtnUib-29" value="" style="endArrow=none;html=1;" parent="1" edge="1">
          <mxGeometry width="50" height="50" relative="1" as="geometry">
            <mxPoint x="210" y="-290" as="sourcePoint" />
            <mxPoint x="1770" y="-290" as="targetPoint" />
          </mxGeometry>
        </mxCell>
        <mxCell id="CLJY1bVq05rDFRHtnUib-30" value="" style="endArrow=open;endFill=1;endSize=12;html=1;entryX=0.25;entryY=0;entryDx=0;entryDy=0;" parent="1" target="CLJY1bVq05rDFRHtnUib-22" edge="1">
          <mxGeometry width="160" relative="1" as="geometry">
            <mxPoint x="1770" y="-290" as="sourcePoint" />
            <mxPoint x="1520" y="-60" as="targetPoint" />
          </mxGeometry>
        </mxCell>
        <mxCell id="CLJY1bVq05rDFRHtnUib-31" value="1" style="text;html=1;strokeColor=none;fillColor=none;align=center;verticalAlign=middle;whiteSpace=wrap;rounded=0;" parent="1" vertex="1">
          <mxGeometry x="1770" y="200" width="40" height="20" as="geometry" />
        </mxCell>
        <UserObject label="https://github.com/criptos875/trabajoIG/import" id="CLJY1bVq05rDFRHtnUib-32">
          <mxCell style="text;whiteSpace=wrap;html=1;" parent="1" vertex="1">
            <mxGeometry x="1680" y="310" width="270" height="30" as="geometry" />
          </mxCell>
        </UserObject>
        <mxCell id="884Icalcqkr2jpZVz-mu-1" value="Esto es un EJEMPLO" style="rounded=0;whiteSpace=wrap;html=1;" vertex="1" parent="1">
          <mxGeometry x="-345" y="-40" width="120" height="60" as="geometry" />
        </mxCell>
      </root>
    </mxGraphModel>
  </diagram>
</mxfile>
